<svg version="1" xmlns="http://www.w3.org/2000/svg" width="465.333" height="465.333" viewBox="0 0 349.000000 349.000000"><path d="M340.5 28c-4.4 2.2-9.3 4.5-11 5.1-4.1 1.6-15.9 7.2-16.5 7.9-.8.8-38.6 19-39.6 19-.2 0-8.7 4-18.8 9-10.1 4.9-21.8 10.3-25.9 11.9-9.6 3.8-35.1 16.2-35.5 17.3-.2.4-.9.8-1.6.8-.7 0-2.6.6-4.2 1.4-3.6 1.7-8.5 3.8-14.4 6.2-2.5 1-15.4 7.4-28.7 14.1-23.5 12-46.5 22-52.8 23-2.8.4-4.1-.4-11.6-6.8-13.1-11.3-22-19.1-25.2-22.4-6.1-5.9-23.5-21-31.7-27.4-4.7-3.6-8.7-6.8-9-7.1-.3-.3-3.5-3.1-7.3-6.3L0 67.8v2.9c0 3.8 3.7 7.5 20.4 20.2 8.3 6.2 16.5 13.4 28.5 24.7 8.8 8.2 19.6 17.8 27.9 24.7 8.2 6.8 7.7 5.3 7.9 25.2.2 44.4.2 71.7-.1 80-.5 14.2-.5 42 0 53 .2 5.5.8 16.5 1.2 24.5.4 8 .5 16.3.2 18.5-.7 5.3-.1 7.5 2 7.5 2.7 0 3-2.8 2.3-21.4-.4-9.4-.6-34.2-.6-55.1.1-20.9.1-43 .1-49-.3-66.8-.2-72.5.8-73.5.6-.6 1.9-1.2 3-1.4 6.2-1.3 49.7-20.9 52.4-23.6 1.7-1.7 33-16.3 33-15.3 0 .3.6.1 1.3-.4.6-.6 2.5-1.3 4.1-1.7 1.7-.4 6.2-2.6 10-4.9 10.2-5.9 25.7-13.4 33.9-16.4 4-1.4 11.3-4.6 16.2-7.1 5-2.4 16.9-8.2 26.5-12.7 26.6-12.6 38.4-18.1 51.5-24.5 6.6-3.2 15.3-7.2 19.3-9.1 6.5-2.9 7.2-3.5 7.2-6.1 0-1.5-.1-2.8-.2-2.7-.2 0-3.9 1.8-8.3 3.9z"/><path d="M291.8 83.1c-.2.6.6 7.3 1.9 14.8 1.2 7.5 2.5 15.4 2.8 17.6.9 6 1.5 7.7 2.8 7.2 1.2-.4 1.2-.9.1-8.7l-.6-4.5 5.8-2.8 5.8-2.9 4.8 5.1c2.6 2.8 5.1 5.1 5.7 5.1 2.4 0-.3-3.7-10.4-14.6-6.1-6.4-12.1-13-13.4-14.5-2.5-3-4.7-3.7-5.3-1.8zm11.4 20.6l-4.7 2.2-.6-2.4c-.4-1.2-.9-4.2-1.3-6.6-.3-2.4-.8-5.5-1.1-6.9-.5-1.9.9-.8 5.9 4.5l6.6 7-4.8 2.2zM259.5 98c-.4.6 2.3 7 5.9 14.2 3.6 7.2 6.5 13.3 6.3 13.4-.1.1-6.7-3.9-14.6-9.1-7.9-5.1-15-9.1-15.7-8.8-1.5.5-1.3 1.2 3.9 12.3 1.9 4.1 4.7 10.4 6.2 14 3.1 7.1 4.3 9 5.6 9 1.6 0 1-1.9-4.2-13.8-2.8-6.4-5.5-12.7-6-13.9l-.8-2.2 3.2 2c1.8 1 8.8 5.7 15.7 10.3 6.9 4.6 12.8 7.9 13.1 7.4.6-.9-15.1-33.2-17-35.1-.5-.5-1.2-.4-1.6.3zM212 123.4c0 2.1 16.6 36.2 18.1 37.1 2.5 1.6.1-5-8-21.8-7.3-15-10.1-19.4-10.1-15.3zM182.7 134.6c-.3.4 0 1.9.7 3.3.8 1.4 3.5 7.7 6.1 14 4 9.7 4.6 12.1 4 15.7-.9 6.5-5.6 9.3-11.6 7.1-2.7-1-4.1-3.2-10.3-15.6-6.4-13-9.6-17.6-9.6-13.9 0 .7 3.1 7.6 6.9 15.3 7.4 14.9 9.6 17.3 16.4 17.9 5.8.6 11.5-4.6 12.3-11.1.3-2.6-11.6-32.5-13.2-33-.6-.2-1.3 0-1.7.3zM124.9 160.8c-3.6 3-5.1 6.3-5.3 11.7-.5 11.8 7.3 24.7 16.6 27.6 5.1 1.6 11.2-1 12.7-5.3l1-2.9 3.7 1.6c2 .8 4.5 1.5 5.6 1.5 3.2 0 1.5-2.4-2.9-3.9-3.7-1.3-4.1-1.9-4.6-5.5-1.5-10.4-5.2-18.3-11.1-23.1-5.9-4.8-11.3-5.5-15.7-1.7zm10.3 1.8c5.7 2.9 8.5 6.7 11.3 14.9 2.3 6.6 2.8 10.5 1.6 10.5-.6 0-2.2-.5-3.6-1.2-1.9-.8-2.8-.9-3.7 0-.8.8-.1 1.5 2.6 2.8 2 1 3.6 2.3 3.6 2.9 0 2.4-3.8 4.6-8 4.7-3.4 0-4.8-.6-7.6-3.3-9.5-9.2-11.6-25.2-4.1-31.1 2.7-2.2 4-2.2 7.9-.2z"/></svg>